{
	"asset":{
		"generator":"Khronos glTF Blender I/O v4.4.55",
		"version":"2.0"
	},
	"scene":0,
	"scenes":[
		{
			"name":"Scene",
			"nodes":[
				1
			]
		}
	],
	"nodes":[
		{
			"name":"mount_point"
		},
		{
			"children":[
				0
			],
			"mesh":0,
			"name":"mirror-r-unique",
			"translation":[
				0.2490372657775879,
				-0.2464054375886917,
				0.14707377552986145
			]
		}
	],
	"meshes":[
		{
			"name":"mirror-r-unique",
			"primitives":[
				{
					"attributes":{
						"POSITION":0,
						"NORMAL":1
					},
					"indices":2
				}
			]
		}
	],
	"accessors":[
		{
			"bufferView":0,
			"componentType":5126,
			"count":1146,
			"max":[
				0.06998950242996216,
				0.49971824884414673,
				0.1545107662677765
			],
			"min":[
				-0.5872218012809753,
				-0.07308898866176605,
				-0.404098242521286
			],
			"type":"VEC3"
		},
		{
			"bufferView":1,
			"componentType":5126,
			"count":1146,
			"type":"VEC3"
		},
		{
			"bufferView":2,
			"componentType":5123,
			"count":1146,
			"type":"SCALAR"
		}
	],
	"bufferViews":[
		{
			"buffer":0,
			"byteLength":13752,
			"byteOffset":0,
			"target":34962
		},
		{
			"buffer":0,
			"byteLength":13752,
			"byteOffset":13752,
			"target":34962
		},
		{
			"buffer":0,
			"byteLength":2292,
			"byteOffset":27504,
			"target":34963
		}
	],
	"buffers":[
		{
			"byteLength":29796,
			"uri":"mirror-r-unique.bin"
		}
	]
}
