{
	"asset":{
		"generator":"Khronos glTF Blender I/O v4.4.55",
		"version":"2.0"
	},
	"scene":0,
	"scenes":[
		{
			"name":"Scene",
			"nodes":[
				1
			]
		}
	],
	"nodes":[
		{
			"name":"attach_point",
			"translation":[
				0.2518868148326874,
				-0.250344455242157,
				0.14983707666397095
			]
		},
		{
			"children":[
				0
			],
			"mesh":0,
			"name":"mirror-r"
		}
	],
	"meshes":[
		{
			"name":"body.008",
			"primitives":[
				{
					"attributes":{
						"POSITION":0,
						"NORMAL":1
					},
					"indices":2
				}
			]
		}
	],
	"accessors":[
		{
			"bufferView":0,
			"componentType":5126,
			"count":1124,
			"max":[
				0.31902676820755005,
				0.2533128261566162,
				0.30158454179763794
			],
			"min":[
				-0.33818453550338745,
				-0.31949442625045776,
				-0.25702446699142456
			],
			"type":"VEC3"
		},
		{
			"bufferView":1,
			"componentType":5126,
			"count":1124,
			"type":"VEC3"
		},
		{
			"bufferView":2,
			"componentType":5123,
			"count":1146,
			"type":"SCALAR"
		}
	],
	"bufferViews":[
		{
			"buffer":0,
			"byteLength":13488,
			"byteOffset":0,
			"target":34962
		},
		{
			"buffer":0,
			"byteLength":13488,
			"byteOffset":13488,
			"target":34962
		},
		{
			"buffer":0,
			"byteLength":2292,
			"byteOffset":26976,
			"target":34963
		}
	],
	"buffers":[
		{
			"byteLength":29268,
			"uri":"mirror-r-unique.bin"
		}
	]
}
