{
	"asset":{
		"generator":"Khronos glTF Blender I/O v4.4.55",
		"version":"2.0"
	},
	"scene":0,
	"scenes":[
		{
			"name":"Scene",
			"nodes":[
				1
			]
		}
	],
	"nodes":[
		{
			"name":"mount_point"
		},
		{
			"children":[
				0
			],
			"mesh":0,
			"name":"mirror-l-unique",
			"translation":[
				-0.24270914494991302,
				-0.24713820219039917,
				0.13533811271190643
			]
		}
	],
	"meshes":[
		{
			"name":"mirror-l-unique",
			"primitives":[
				{
					"attributes":{
						"POSITION":0,
						"NORMAL":1
					},
					"indices":2
				}
			]
		}
	],
	"accessors":[
		{
			"bufferView":0,
			"componentType":5126,
			"count":1146,
			"max":[
				0.580759584903717,
				0.5004510283470154,
				0.1662462204694748
			],
			"min":[
				-0.07623808085918427,
				-0.0723562240600586,
				-0.3923627734184265
			],
			"type":"VEC3"
		},
		{
			"bufferView":1,
			"componentType":5126,
			"count":1146,
			"type":"VEC3"
		},
		{
			"bufferView":2,
			"componentType":5123,
			"count":1146,
			"type":"SCALAR"
		}
	],
	"bufferViews":[
		{
			"buffer":0,
			"byteLength":13752,
			"byteOffset":0,
			"target":34962
		},
		{
			"buffer":0,
			"byteLength":13752,
			"byteOffset":13752,
			"target":34962
		},
		{
			"buffer":0,
			"byteLength":2292,
			"byteOffset":27504,
			"target":34963
		}
	],
	"buffers":[
		{
			"byteLength":29796,
			"uri":"mirror-l-unique.bin"
		}
	]
}
