{
	"asset":{
		"generator":"Khronos glTF Blender I/O v4.4.55",
		"version":"2.0"
	},
	"scene":0,
	"scenes":[
		{
			"name":"Scene",
			"nodes":[
				6
			]
		}
	],
	"nodes":[
		{
			"name":"mirror-l-unique",
			"rotation":[
				0,
				-1,
				0,
				4.371138828673793e-08
			],
			"translation":[
				2.524973154067993,
				1.0590134859085083,
				1.4834110736846924
			]
		},
		{
			"name":"mirror-r-unique",
			"translation":[
				-2.524970054626465,
				1.0590100288391113,
				1.4834110736846924
			]
		},
		{
			"name":"wheel-bl",
			"rotation":[
				0,
				-1,
				0,
				4.371138828673793e-08
			],
			"translation":[
				1.4232982397079468,
				-1.1041793823242188,
				-4.951564311981201
			]
		},
		{
			"name":"wheel-br",
			"translation":[
				-1.4221835136413574,
				-1.1041793823242188,
				-4.951564311981201
			]
		},
		{
			"name":"wheel-fl",
			"rotation":[
				0,
				-1,
				0,
				4.371138828673793e-08
			],
			"translation":[
				1.4082359075546265,
				-1.1041793823242188,
				3.756000518798828
			]
		},
		{
			"name":"wheel-fr",
			"translation":[
				-1.4297758340835571,
				-1.1041793823242188,
				3.756000518798828
			]
		},
		{
			"children":[
				0,
				1,
				2,
				3,
				4,
				5
			],
			"mesh":0,
			"name":"body"
		}
	],
	"meshes":[
		{
			"name":"body",
			"primitives":[
				{
					"attributes":{
						"POSITION":0,
						"NORMAL":1
					},
					"indices":2
				}
			]
		}
	],
	"accessors":[
		{
			"bufferView":0,
			"componentType":5126,
			"count":1202038,
			"max":[
				2.8592004776000977,
				2.5598602294921875,
				6.781585693359375
			],
			"min":[
				-2.8624789714813232,
				-1.6057978868484497,
				-8.218414306640625
			],
			"type":"VEC3"
		},
		{
			"bufferView":1,
			"componentType":5126,
			"count":1202038,
			"type":"VEC3"
		},
		{
			"bufferView":2,
			"componentType":5125,
			"count":1264350,
			"type":"SCALAR"
		}
	],
	"bufferViews":[
		{
			"buffer":0,
			"byteLength":14424456,
			"byteOffset":0,
			"target":34962
		},
		{
			"buffer":0,
			"byteLength":14424456,
			"byteOffset":14424456,
			"target":34962
		},
		{
			"buffer":0,
			"byteLength":5057400,
			"byteOffset":28848912,
			"target":34963
		}
	],
	"buffers":[
		{
			"byteLength":33906312,
			"uri":"body.bin"
		}
	]
}
