{
	"asset":{
		"generator":"Khronos glTF Blender I/O v4.4.55",
		"version":"2.0"
	},
	"scene":0,
	"scenes":[
		{
			"name":"Scene",
			"nodes":[
				1
			]
		}
	],
	"nodes":[
		{
			"name":"mount_point"
		},
		{
			"children":[
				0
			],
			"mesh":0,
			"name":"wheel",
			"translation":[
				0.9413377642631531,
				-0.002972603775560856,
				-0.0010843276977539062
			]
		}
	],
	"meshes":[
		{
			"name":"wheel",
			"primitives":[
				{
					"attributes":{
						"POSITION":0,
						"NORMAL":1
					},
					"indices":2
				}
			]
		}
	],
	"accessors":[
		{
			"bufferView":0,
			"componentType":5126,
			"count":39623,
			"max":[
				0.018187999725341797,
				1.1196521520614624,
				1.0971510410308838
			],
			"min":[
				-1.3138432502746582,
				-1.0943485498428345,
				-1.1157395839691162
			],
			"type":"VEC3"
		},
		{
			"bufferView":1,
			"componentType":5126,
			"count":39623,
			"type":"VEC3"
		},
		{
			"bufferView":2,
			"componentType":5123,
			"count":42672,
			"type":"SCALAR"
		}
	],
	"bufferViews":[
		{
			"buffer":0,
			"byteLength":475476,
			"byteOffset":0,
			"target":34962
		},
		{
			"buffer":0,
			"byteLength":475476,
			"byteOffset":475476,
			"target":34962
		},
		{
			"buffer":0,
			"byteLength":85344,
			"byteOffset":950952,
			"target":34963
		}
	],
	"buffers":[
		{
			"byteLength":1036296,
			"uri":"wheel.bin"
		}
	]
}
