{
	"asset":{
		"generator":"Khronos glTF Blender I/O v4.3.47",
		"version":"2.0"
	},
	"scene":0,
	"scenes":[
		{
			"name":"Scene",
			"nodes":[
				1
			]
		}
	],
	"nodes":[
		{
			"name":"mount_point",
			"translation":[
				-0.03254660964012146,
				0,
				0
			]
		},
		{
			"children":[
				0
			],
			"mesh":0,
			"name":"wheel"
		}
	],
	"meshes":[
		{
			"name":"wheel",
			"primitives":[
				{
					"attributes":{
						"POSITION":0,
						"NORMAL":1
					},
					"indices":2
				}
			]
		}
	],
	"accessors":[
		{
			"bufferView":0,
			"componentType":5126,
			"count":1589,
			"max":[
				0.3073998987674713,
				0.38243311643600464,
				0.39067840576171875
			],
			"min":[
				-0.034261010587215424,
				-0.40200746059417725,
				-0.3937619924545288
			],
			"type":"VEC3"
		},
		{
			"bufferView":1,
			"componentType":5126,
			"count":1589,
			"type":"VEC3"
		},
		{
			"bufferView":2,
			"componentType":5123,
			"count":3750,
			"type":"SCALAR"
		}
	],
	"bufferViews":[
		{
			"buffer":0,
			"byteLength":19068,
			"byteOffset":0,
			"target":34962
		},
		{
			"buffer":0,
			"byteLength":19068,
			"byteOffset":19068,
			"target":34962
		},
		{
			"buffer":0,
			"byteLength":7500,
			"byteOffset":38136,
			"target":34963
		}
	],
	"buffers":[
		{
			"byteLength":45636,
			"uri":"sport.bin"
		}
	]
}
