{
	"asset":{
		"generator":"Khronos glTF Blender I/O v4.3.47",
		"version":"2.0"
	},
	"scene":0,
	"scenes":[
		{
			"name":"Scene",
			"nodes":[
				1
			]
		}
	],
	"nodes":[
		{
			"name":"mount_point",
			"translation":[
				-0.13272729516029358,
				0,
				0
			]
		},
		{
			"children":[
				0
			],
			"mesh":0,
			"name":"wheel"
		}
	],
	"meshes":[
		{
			"name":"wheel.002",
			"primitives":[
				{
					"attributes":{
						"POSITION":0,
						"NORMAL":1,
						"TEXCOORD_0":2
					},
					"indices":3
				}
			]
		}
	],
	"accessors":[
		{
			"bufferView":0,
			"componentType":5126,
			"count":1474,
			"max":[
				0.11110663414001465,
				0.3402949869632721,
				0.340151309967041
			],
			"min":[
				-0.14504492282867432,
				-0.338375061750412,
				-0.3385188579559326
			],
			"type":"VEC3"
		},
		{
			"bufferView":1,
			"componentType":5126,
			"count":1474,
			"type":"VEC3"
		},
		{
			"bufferView":2,
			"componentType":5126,
			"count":1474,
			"type":"VEC2"
		},
		{
			"bufferView":3,
			"componentType":5123,
			"count":2910,
			"type":"SCALAR"
		}
	],
	"bufferViews":[
		{
			"buffer":0,
			"byteLength":17688,
			"byteOffset":0,
			"target":34962
		},
		{
			"buffer":0,
			"byteLength":17688,
			"byteOffset":17688,
			"target":34962
		},
		{
			"buffer":0,
			"byteLength":11792,
			"byteOffset":35376,
			"target":34962
		},
		{
			"buffer":0,
			"byteLength":5820,
			"byteOffset":47168,
			"target":34963
		}
	],
	"buffers":[
		{
			"byteLength":52988,
			"uri":"suv.bin"
		}
	]
}
