{
	"asset":{
		"generator":"Khronos glTF Blender I/O v4.4.55",
		"version":"2.0"
	},
	"scene":0,
	"scenes":[
		{
			"name":"Scene",
			"nodes":[
				6
			]
		}
	],
	"nodes":[
		{
			"name":"mirror-l-unique",
			"translation":[
				2.6461257934570312,
				0.7197136878967285,
				1.5548462867736816
			]
		},
		{
			"name":"mirror-r-unique",
			"translation":[
				-2.6607697010040283,
				0.7197136878967285,
				1.5548462867736816
			]
		},
		{
			"name":"wheel-bl",
			"rotation":[
				0,
				-1,
				0,
				4.371138828673793e-08
			],
			"translation":[
				1.0387102365493774,
				-1.0418944358825684,
				-4.005828380584717
			]
		},
		{
			"name":"wheel-br",
			"translation":[
				-1.0660147666931152,
				-1.0418944358825684,
				-4.005828380584717
			]
		},
		{
			"name":"wheel-fl",
			"rotation":[
				0,
				-1,
				0,
				4.371138828673793e-08
			],
			"translation":[
				1.0566706657409668,
				-1.0465624332427979,
				4.812458038330078
			]
		},
		{
			"name":"wheel-fr",
			"translation":[
				-1.0382142066955566,
				-1.0465624332427979,
				4.812458038330078
			]
		},
		{
			"children":[
				0,
				1,
				2,
				3,
				4,
				5
			],
			"mesh":0,
			"name":"body"
		}
	],
	"meshes":[
		{
			"name":"body",
			"primitives":[
				{
					"attributes":{
						"POSITION":0,
						"NORMAL":1
					},
					"indices":2
				}
			]
		}
	],
	"accessors":[
		{
			"bufferView":0,
			"componentType":5126,
			"count":65914,
			"max":[
				2.870636463165283,
				2.3380565643310547,
				7.672989845275879
			],
			"min":[
				-2.881835460662842,
				-1.6191960573196411,
				-7.327010154724121
			],
			"type":"VEC3"
		},
		{
			"bufferView":1,
			"componentType":5126,
			"count":65914,
			"type":"VEC3"
		},
		{
			"bufferView":2,
			"componentType":5125,
			"count":72294,
			"type":"SCALAR"
		}
	],
	"bufferViews":[
		{
			"buffer":0,
			"byteLength":790968,
			"byteOffset":0,
			"target":34962
		},
		{
			"buffer":0,
			"byteLength":790968,
			"byteOffset":790968,
			"target":34962
		},
		{
			"buffer":0,
			"byteLength":289176,
			"byteOffset":1581936,
			"target":34963
		}
	],
	"buffers":[
		{
			"byteLength":1871112,
			"uri":"body.bin"
		}
	]
}
