{
	"asset":{
		"generator":"Khronos glTF Blender I/O v4.4.55",
		"version":"2.0"
	},
	"scene":0,
	"scenes":[
		{
			"name":"Scene",
			"nodes":[
				0,
				1,
				2,
				3,
				4,
				5,
				6
			]
		}
	],
	"nodes":[
		{
			"mesh":0,
			"name":"body"
		},
		{
			"name":"wheel-fl",
			"rotation":[
				0,
				-1,
				0,
				4.371138828673793e-08
			],
			"translation":[
				1.0158559083938599,
				-1.0654133558273315,
				4.819923400878906
			]
		},
		{
			"name":"wheel-fr",
			"translation":[
				-1.0669300556182861,
				-1.0654133558273315,
				4.819923400878906
			]
		},
		{
			"name":"wheel-br",
			"translation":[
				-1.0669300556182861,
				-1.0654133558273315,
				-4.002289295196533
			]
		},
		{
			"name":"wheel-bl",
			"rotation":[
				0,
				-1,
				0,
				4.371138828673793e-08
			],
			"translation":[
				1.0414000749588013,
				-1.0654133558273315,
				-4.002289295196533
			]
		},
		{
			"name":"mirror-l-unique",
			"translation":[
				2.6454074382781982,
				0.7425780296325684,
				1.6047388315200806
			]
		},
		{
			"name":"mirror-r-unique",
			"rotation":[
				0,
				-1,
				0,
				4.371138828673793e-08
			],
			"translation":[
				-2.6454100608825684,
				0.7425780296325684,
				1.6047388315200806
			]
		}
	],
	"meshes":[
		{
			"name":"dodge-challenger",
			"primitives":[
				{
					"attributes":{
						"POSITION":0,
						"NORMAL":1
					},
					"indices":2
				}
			]
		}
	],
	"accessors":[
		{
			"bufferView":0,
			"componentType":5126,
			"count":65992,
			"max":[
				2.8706254959106445,
				2.338057041168213,
				7.6729888916015625
			],
			"min":[
				-2.8818464279174805,
				-1.619195580482483,
				-7.3270111083984375
			],
			"type":"VEC3"
		},
		{
			"bufferView":1,
			"componentType":5126,
			"count":65992,
			"type":"VEC3"
		},
		{
			"bufferView":2,
			"componentType":5125,
			"count":72294,
			"type":"SCALAR"
		}
	],
	"bufferViews":[
		{
			"buffer":0,
			"byteLength":791904,
			"byteOffset":0,
			"target":34962
		},
		{
			"buffer":0,
			"byteLength":791904,
			"byteOffset":791904,
			"target":34962
		},
		{
			"buffer":0,
			"byteLength":289176,
			"byteOffset":1583808,
			"target":34963
		}
	],
	"buffers":[
		{
			"byteLength":1872984,
			"uri":"body.bin"
		}
	]
}
