{
	"asset":{
		"generator":"Khronos glTF Blender I/O v4.4.55",
		"version":"2.0"
	},
	"scene":0,
	"scenes":[
		{
			"name":"Scene",
			"nodes":[
				6
			]
		}
	],
	"nodes":[
		{
			"name":"mirror-l-unique",
			"rotation":[
				0,
				-1,
				0,
				4.371138828673793e-08
			],
			"translation":[
				2.6467180252075195,
				0.7404756546020508,
				1.610600471496582
			]
		},
		{
			"name":"mirror-r-unique",
			"translation":[
				-2.663784980773926,
				0.7404756546020508,
				1.610600471496582
			]
		},
		{
			"name":"wheel-bl",
			"translation":[
				1.0556235313415527,
				-1.0449678897857666,
				-4.010131359100342
			]
		},
		{
			"name":"wheel-br",
			"rotation":[
				0,
				-1,
				0,
				4.371138828673793e-08
			],
			"translation":[
				-1.060821771621704,
				-1.0449678897857666,
				-4.010131359100342
			]
		},
		{
			"name":"wheel-fl",
			"translation":[
				1.056631088256836,
				-1.0613857507705688,
				4.823369026184082
			]
		},
		{
			"name":"wheel-fr",
			"rotation":[
				0,
				-1,
				0,
				4.371138828673793e-08
			],
			"translation":[
				-1.060821771621704,
				-1.0613857507705688,
				4.823369026184082
			]
		},
		{
			"children":[
				0,
				1,
				2,
				3,
				4,
				5
			],
			"mesh":0,
			"name":"body"
		}
	],
	"meshes":[
		{
			"name":"body",
			"primitives":[
				{
					"attributes":{
						"POSITION":0,
						"NORMAL":1
					},
					"indices":2
				}
			]
		}
	],
	"accessors":[
		{
			"bufferView":0,
			"componentType":5126,
			"count":65992,
			"max":[
				2.8706254959106445,
				2.338057041168213,
				7.6729888916015625
			],
			"min":[
				-2.8818464279174805,
				-1.619195580482483,
				-7.3270111083984375
			],
			"type":"VEC3"
		},
		{
			"bufferView":1,
			"componentType":5126,
			"count":65992,
			"type":"VEC3"
		},
		{
			"bufferView":2,
			"componentType":5125,
			"count":72294,
			"type":"SCALAR"
		}
	],
	"bufferViews":[
		{
			"buffer":0,
			"byteLength":791904,
			"byteOffset":0,
			"target":34962
		},
		{
			"buffer":0,
			"byteLength":791904,
			"byteOffset":791904,
			"target":34962
		},
		{
			"buffer":0,
			"byteLength":289176,
			"byteOffset":1583808,
			"target":34963
		}
	],
	"buffers":[
		{
			"byteLength":1872984,
			"uri":"body.bin"
		}
	]
}
