{
	"asset":{
		"generator":"Khronos glTF Blender I/O v4.4.55",
		"version":"2.0"
	},
	"scene":0,
	"scenes":[
		{
			"name":"Scene",
			"nodes":[
				6
			]
		}
	],
	"nodes":[
		{
			"name":"mirror-l-unique",
			"rotation":[
				0,
				1,
				0,
				4.371138828673793e-08
			],
			"translation":[
				2.6454074382781982,
				0.7425780296325684,
				1.6047391891479492
			]
		},
		{
			"name":"mirror-r-unique",
			"translation":[
				-2.6454100608825684,
				0.7425780296325684,
				1.6047391891479492
			]
		},
		{
			"name":"wheel-bl",
			"rotation":[
				0,
				1,
				0,
				4.371138828673793e-08
			],
			"translation":[
				1.0414000749588013,
				-1.0654133558273315,
				-4.002289772033691
			]
		},
		{
			"name":"wheel-br",
			"translation":[
				-1.0669300556182861,
				-1.0654133558273315,
				-4.002289772033691
			]
		},
		{
			"name":"wheel-fl",
			"rotation":[
				0,
				1,
				0,
				4.371138828673793e-08
			],
			"translation":[
				1.0158559083938599,
				-1.0654133558273315,
				4.81992244720459
			]
		},
		{
			"name":"wheel-fr",
			"translation":[
				-1.0669300556182861,
				-1.0654133558273315,
				4.81992244720459
			]
		},
		{
			"children":[
				0,
				1,
				2,
				3,
				4,
				5
			],
			"mesh":0,
			"name":"body"
		}
	],
	"meshes":[
		{
			"name":"dodge-challenger",
			"primitives":[
				{
					"attributes":{
						"POSITION":0,
						"NORMAL":1
					},
					"indices":2
				}
			]
		}
	],
	"accessors":[
		{
			"bufferView":0,
			"componentType":5126,
			"count":65992,
			"max":[
				2.8706321716308594,
				2.3380579948425293,
				7.672990798950195
			],
			"min":[
				-2.8818397521972656,
				-1.6191948652267456,
				-7.327009201049805
			],
			"type":"VEC3"
		},
		{
			"bufferView":1,
			"componentType":5126,
			"count":65992,
			"type":"VEC3"
		},
		{
			"bufferView":2,
			"componentType":5125,
			"count":72294,
			"type":"SCALAR"
		}
	],
	"bufferViews":[
		{
			"buffer":0,
			"byteLength":791904,
			"byteOffset":0,
			"target":34962
		},
		{
			"buffer":0,
			"byteLength":791904,
			"byteOffset":791904,
			"target":34962
		},
		{
			"buffer":0,
			"byteLength":289176,
			"byteOffset":1583808,
			"target":34963
		}
	],
	"buffers":[
		{
			"byteLength":1872984,
			"uri":"body.bin"
		}
	]
}
