{
	"asset":{
		"generator":"Khronos glTF Blender I/O v4.4.55",
		"version":"2.0"
	},
	"scene":0,
	"scenes":[
		{
			"name":"Scene",
			"nodes":[
				1
			]
		}
	],
	"nodes":[
		{
			"name":"mount_point",
			"rotation":[
				0,
				-1,
				0,
				4.371138828673793e-08
			],
			"translation":[
				-0.2501637935638428,
				-0.2523828148841858,
				0.1370668113231659
			]
		},
		{
			"children":[
				0
			],
			"mesh":0,
			"name":"mirror-l"
		}
	],
	"meshes":[
		{
			"name":"body.007",
			"primitives":[
				{
					"attributes":{
						"POSITION":0,
						"NORMAL":1
					},
					"indices":2
				}
			]
		}
	],
	"accessors":[
		{
			"bufferView":0,
			"componentType":5126,
			"count":1124,
			"max":[
				0.33805227279663086,
				0.25331223011016846,
				0.3015855550765991
			],
			"min":[
				-0.31894540786743164,
				-0.3194950222969055,
				-0.2570234537124634
			],
			"type":"VEC3"
		},
		{
			"bufferView":1,
			"componentType":5126,
			"count":1124,
			"type":"VEC3"
		},
		{
			"bufferView":2,
			"componentType":5123,
			"count":1146,
			"type":"SCALAR"
		}
	],
	"bufferViews":[
		{
			"buffer":0,
			"byteLength":13488,
			"byteOffset":0,
			"target":34962
		},
		{
			"buffer":0,
			"byteLength":13488,
			"byteOffset":13488,
			"target":34962
		},
		{
			"buffer":0,
			"byteLength":2292,
			"byteOffset":26976,
			"target":34963
		}
	],
	"buffers":[
		{
			"byteLength":29268,
			"uri":"dodge-challenger-left.bin"
		}
	]
}
