{
	"asset":{
		"generator":"Khronos glTF Blender I/O v4.4.55",
		"version":"2.0"
	},
	"scene":0,
	"scenes":[
		{
			"name":"Scene",
			"nodes":[
				1
			]
		}
	],
	"nodes":[
		{
			"name":"mount_point",
			"rotation":[
				0.1736481636762619,
				-0.9848077893257141,
				0,
				4.304731149318286e-08
			],
			"translation":[
				-0.4016006588935852,
				-0.1552591323852539,
				0.23241567611694336
			]
		},
		{
			"children":[
				0
			],
			"mesh":0,
			"name":"mirror-l",
			"translation":[
				-0.01367131620645523,
				0,
				0
			]
		}
	],
	"meshes":[
		{
			"name":"body",
			"primitives":[
				{
					"attributes":{
						"POSITION":0,
						"NORMAL":1
					},
					"indices":2
				}
			]
		}
	],
	"accessors":[
		{
			"bufferView":0,
			"componentType":5126,
			"count":5098,
			"max":[
				0.3827085494995117,
				0.3101738691329956,
				0.4063442349433899
			],
			"min":[
				-0.43535375595092773,
				-0.21758341789245605,
				-0.32364779710769653
			],
			"type":"VEC3"
		},
		{
			"bufferView":1,
			"componentType":5126,
			"count":5098,
			"type":"VEC3"
		},
		{
			"bufferView":2,
			"componentType":5123,
			"count":5439,
			"type":"SCALAR"
		}
	],
	"bufferViews":[
		{
			"buffer":0,
			"byteLength":61176,
			"byteOffset":0,
			"target":34962
		},
		{
			"buffer":0,
			"byteLength":61176,
			"byteOffset":61176,
			"target":34962
		},
		{
			"buffer":0,
			"byteLength":10878,
			"byteOffset":122352,
			"target":34963
		}
	],
	"buffers":[
		{
			"byteLength":133232,
			"uri":"giulia-left.bin"
		}
	]
}
