{
	"asset":{
		"generator":"Khronos glTF Blender I/O v4.3.47",
		"version":"2.0"
	},
	"scene":0,
	"scenes":[
		{
			"name":"Scene",
			"nodes":[
				1
			]
		}
	],
	"nodes":[
		{
			"name":"mount_point",
			"rotation":[
				0,
				-0.026176948100328445,
				0,
				0.9996573328971863
			],
			"translation":[
				-0.1463298350572586,
				-0.03601313382387161,
				0.07826179265975952
			]
		},
		{
			"children":[
				0
			],
			"mesh":0,
			"name":"mirror"
		}
	],
	"meshes":[
		{
			"name":"mirror",
			"primitives":[
				{
					"attributes":{
						"POSITION":0,
						"NORMAL":1
					},
					"indices":2
				}
			]
		}
	],
	"accessors":[
		{
			"bufferView":0,
			"componentType":5126,
			"count":234,
			"max":[
				0.13712888956069946,
				0.10861814022064209,
				0.1920272707939148
			],
			"min":[
				-0.16277939081192017,
				-0.04809534549713135,
				-0.11286565661430359
			],
			"type":"VEC3"
		},
		{
			"bufferView":1,
			"componentType":5126,
			"count":234,
			"type":"VEC3"
		},
		{
			"bufferView":2,
			"componentType":5123,
			"count":357,
			"type":"SCALAR"
		}
	],
	"bufferViews":[
		{
			"buffer":0,
			"byteLength":2808,
			"byteOffset":0,
			"target":34962
		},
		{
			"buffer":0,
			"byteLength":2808,
			"byteOffset":2808,
			"target":34962
		},
		{
			"buffer":0,
			"byteLength":714,
			"byteOffset":5616,
			"target":34963
		}
	],
	"buffers":[
		{
			"byteLength":6332,
			"uri":"suv.bin"
		}
	]
}
