{
	"asset":{
		"generator":"Khronos glTF Blender I/O v4.4.55",
		"version":"2.0"
	},
	"scene":0,
	"scenes":[
		{
			"name":"Scene",
			"nodes":[
				1
			]
		}
	],
	"nodes":[
		{
			"name":"mount_point"
		},
		{
			"children":[
				0
			],
			"mesh":0,
			"name":"wheel",
			"translation":[
				1.2224652767181396,
				0.007288074120879173,
				-0.05609339475631714
			]
		}
	],
	"meshes":[
		{
			"name":"wheel",
			"primitives":[
				{
					"attributes":{
						"POSITION":0,
						"NORMAL":1
					},
					"indices":2
				}
			]
		}
	],
	"accessors":[
		{
			"bufferView":0,
			"componentType":5126,
			"count":304416,
			"max":[
				0.01913154125213623,
				1.1157082319259644,
				1.1202168464660645
			],
			"min":[
				-1.4537383317947388,
				-1.1363040208816528,
				-1.1318583488464355
			],
			"type":"VEC3"
		},
		{
			"bufferView":1,
			"componentType":5126,
			"count":304416,
			"type":"VEC3"
		},
		{
			"bufferView":2,
			"componentType":5125,
			"count":322470,
			"type":"SCALAR"
		}
	],
	"bufferViews":[
		{
			"buffer":0,
			"byteLength":3652992,
			"byteOffset":0,
			"target":34962
		},
		{
			"buffer":0,
			"byteLength":3652992,
			"byteOffset":3652992,
			"target":34962
		},
		{
			"buffer":0,
			"byteLength":1289880,
			"byteOffset":7305984,
			"target":34963
		}
	],
	"buffers":[
		{
			"byteLength":8595864,
			"uri":"wheel.bin"
		}
	]
}
