{
	"asset":{
		"generator":"Khronos glTF Blender I/O v4.4.55",
		"version":"2.0"
	},
	"scene":0,
	"scenes":[
		{
			"name":"Scene",
			"nodes":[
				1
			]
		}
	],
	"nodes":[
		{
			"name":"mount_point"
		},
		{
			"children":[
				0
			],
			"mesh":0,
			"name":"mirror-r-unique",
			"translation":[
				0.38607674837112427,
				-0.13689890503883362,
				0.18525086343288422
			]
		}
	],
	"meshes":[
		{
			"name":"mirror-r-unique",
			"primitives":[
				{
					"attributes":{
						"POSITION":0,
						"NORMAL":1
					},
					"indices":2
				}
			]
		}
	],
	"accessors":[
		{
			"bufferView":0,
			"componentType":5126,
			"count":38911,
			"max":[
				0.03634065389633179,
				0.4136411249637604,
				0.16737283766269684
			],
			"min":[
				-0.7166698575019836,
				-0.05456528067588806,
				-0.45585715770721436
			],
			"type":"VEC3"
		},
		{
			"bufferView":1,
			"componentType":5126,
			"count":38911,
			"type":"VEC3"
		},
		{
			"bufferView":2,
			"componentType":5123,
			"count":41736,
			"type":"SCALAR"
		}
	],
	"bufferViews":[
		{
			"buffer":0,
			"byteLength":466932,
			"byteOffset":0,
			"target":34962
		},
		{
			"buffer":0,
			"byteLength":466932,
			"byteOffset":466932,
			"target":34962
		},
		{
			"buffer":0,
			"byteLength":83472,
			"byteOffset":933864,
			"target":34963
		}
	],
	"buffers":[
		{
			"byteLength":1017336,
			"uri":"mirror-r-unique.bin"
		}
	]
}
