{
	"asset":{
		"generator":"Khronos glTF Blender I/O v4.4.55",
		"version":"2.0"
	},
	"scene":0,
	"scenes":[
		{
			"name":"Scene",
			"nodes":[
				1
			]
		}
	],
	"nodes":[
		{
			"name":"mount_point"
		},
		{
			"children":[
				0
			],
			"mesh":0,
			"name":"mirror-l-unique",
			"translation":[
				-0.3912363052368164,
				-0.13284094631671906,
				0.18692542612552643
			]
		}
	],
	"meshes":[
		{
			"name":"mirror-l-unique",
			"primitives":[
				{
					"attributes":{
						"POSITION":0,
						"NORMAL":1
					},
					"indices":2
				}
			]
		}
	],
	"accessors":[
		{
			"bufferView":0,
			"componentType":5126,
			"count":38929,
			"max":[
				0.7219796180725098,
				0.4095839858055115,
				0.16569910943508148
			],
			"min":[
				-0.031230926513671875,
				-0.05862240493297577,
				-0.4575308561325073
			],
			"type":"VEC3"
		},
		{
			"bufferView":1,
			"componentType":5126,
			"count":38929,
			"type":"VEC3"
		},
		{
			"bufferView":2,
			"componentType":5123,
			"count":41736,
			"type":"SCALAR"
		}
	],
	"bufferViews":[
		{
			"buffer":0,
			"byteLength":467148,
			"byteOffset":0,
			"target":34962
		},
		{
			"buffer":0,
			"byteLength":467148,
			"byteOffset":467148,
			"target":34962
		},
		{
			"buffer":0,
			"byteLength":83472,
			"byteOffset":934296,
			"target":34963
		}
	],
	"buffers":[
		{
			"byteLength":1017768,
			"uri":"mirror-l-unique.bin"
		}
	]
}
