{
	"asset":{
		"generator":"Khronos glTF Blender I/O v4.4.55",
		"version":"2.0"
	},
	"scene":0,
	"scenes":[
		{
			"name":"Scene",
			"nodes":[
				1
			]
		}
	],
	"nodes":[
		{
			"name":"mount_point"
		},
		{
			"children":[
				0
			],
			"mesh":0,
			"name":"wheel",
			"translation":[
				1.1493430137634277,
				-0.002972603775560856,
				-0.0010843276977539062
			]
		}
	],
	"meshes":[
		{
			"name":"wheel",
			"primitives":[
				{
					"attributes":{
						"POSITION":0,
						"NORMAL":1
					},
					"indices":2
				}
			]
		}
	],
	"accessors":[
		{
			"bufferView":0,
			"componentType":5126,
			"count":15952,
			"max":[
				0.00786733627319336,
				1.0971077680587769,
				1.0800893306732178
			],
			"min":[
				-1.6696839332580566,
				-1.080891728401184,
				-1.0981028079986572
			],
			"type":"VEC3"
		},
		{
			"bufferView":1,
			"componentType":5126,
			"count":15952,
			"type":"VEC3"
		},
		{
			"bufferView":2,
			"componentType":5123,
			"count":17628,
			"type":"SCALAR"
		}
	],
	"bufferViews":[
		{
			"buffer":0,
			"byteLength":191424,
			"byteOffset":0,
			"target":34962
		},
		{
			"buffer":0,
			"byteLength":191424,
			"byteOffset":191424,
			"target":34962
		},
		{
			"buffer":0,
			"byteLength":35256,
			"byteOffset":382848,
			"target":34963
		}
	],
	"buffers":[
		{
			"byteLength":418104,
			"uri":"wheel.bin"
		}
	]
}
