{
	"asset":{
		"generator":"Khronos glTF Blender I/O v4.4.55",
		"version":"2.0"
	},
	"scene":0,
	"scenes":[
		{
			"name":"Scene",
			"nodes":[
				1
			]
		}
	],
	"nodes":[
		{
			"name":"mount_point",
			"translation":[
				1.155687928199768,
				0.0009856251999735832,
				0.0009271670132875443
			]
		},
		{
			"children":[
				0
			],
			"mesh":0,
			"name":"wheel"
		}
	],
	"meshes":[
		{
			"name":"wheel",
			"primitives":[
				{
					"attributes":{
						"POSITION":0,
						"NORMAL":1
					},
					"indices":2
				}
			]
		}
	],
	"accessors":[
		{
			"bufferView":0,
			"componentType":5126,
			"count":15952,
			"max":[
				1.16015625,
				1.0941343307495117,
				1.07965087890625
			],
			"min":[
				-0.51739501953125,
				-1.0838651657104492,
				-1.098541259765625
			],
			"type":"VEC3"
		},
		{
			"bufferView":1,
			"componentType":5126,
			"count":15952,
			"type":"VEC3"
		},
		{
			"bufferView":2,
			"componentType":5123,
			"count":17628,
			"type":"SCALAR"
		}
	],
	"bufferViews":[
		{
			"buffer":0,
			"byteLength":191424,
			"byteOffset":0,
			"target":34962
		},
		{
			"buffer":0,
			"byteLength":191424,
			"byteOffset":191424,
			"target":34962
		},
		{
			"buffer":0,
			"byteLength":35256,
			"byteOffset":382848,
			"target":34963
		}
	],
	"buffers":[
		{
			"byteLength":418104,
			"uri":"wheel.bin"
		}
	]
}
