{
	"asset":{
		"generator":"Khronos glTF Blender I/O v4.4.55",
		"version":"2.0"
	},
	"scene":0,
	"scenes":[
		{
			"name":"Scene",
			"nodes":[
				1
			]
		}
	],
	"nodes":[
		{
			"name":"mount_point"
		},
		{
			"children":[
				0
			],
			"mesh":0,
			"name":"mirror-r-unique",
			"translation":[
				0.41278356313705444,
				-0.16120192408561707,
				0.22891676425933838
			]
		}
	],
	"meshes":[
		{
			"name":"mirror-r-unique",
			"primitives":[
				{
					"attributes":{
						"POSITION":0,
						"NORMAL":1
					},
					"indices":2
				}
			]
		}
	],
	"accessors":[
		{
			"bufferView":0,
			"componentType":5126,
			"count":4964,
			"max":[
				0.030634939670562744,
				0.461471289396286,
				0.16917571425437927
			],
			"min":[
				-0.7745594382286072,
				-0.06392113864421844,
				-0.5413413047790527
			],
			"type":"VEC3"
		},
		{
			"bufferView":1,
			"componentType":5126,
			"count":4964,
			"type":"VEC3"
		},
		{
			"bufferView":2,
			"componentType":5123,
			"count":5028,
			"type":"SCALAR"
		}
	],
	"bufferViews":[
		{
			"buffer":0,
			"byteLength":59568,
			"byteOffset":0,
			"target":34962
		},
		{
			"buffer":0,
			"byteLength":59568,
			"byteOffset":59568,
			"target":34962
		},
		{
			"buffer":0,
			"byteLength":10056,
			"byteOffset":119136,
			"target":34963
		}
	],
	"buffers":[
		{
			"byteLength":129192,
			"uri":"mirror-r-unique.bin"
		}
	]
}
