{
	"asset":{
		"generator":"Khronos glTF Blender I/O v4.4.55",
		"version":"2.0"
	},
	"scene":0,
	"scenes":[
		{
			"name":"Scene",
			"nodes":[
				1
			]
		}
	],
	"nodes":[
		{
			"name":"mount_point"
		},
		{
			"children":[
				0
			],
			"mesh":0,
			"name":"mirror-l-unique",
			"translation":[
				-0.4144975543022156,
				-0.1519555300474167,
				0.22879354655742645
			]
		}
	],
	"meshes":[
		{
			"name":"mirror-l-unique",
			"primitives":[
				{
					"attributes":{
						"POSITION":0,
						"NORMAL":1
					},
					"indices":2
				}
			]
		}
	],
	"accessors":[
		{
			"bufferView":0,
			"componentType":5126,
			"count":5168,
			"max":[
				0.7835347652435303,
				0.4621294140815735,
				0.17755068838596344
			],
			"min":[
				-0.03452751040458679,
				-0.06562788784503937,
				-0.5524413585662842
			],
			"type":"VEC3"
		},
		{
			"bufferView":1,
			"componentType":5126,
			"count":5168,
			"type":"VEC3"
		},
		{
			"bufferView":2,
			"componentType":5123,
			"count":5436,
			"type":"SCALAR"
		}
	],
	"bufferViews":[
		{
			"buffer":0,
			"byteLength":62016,
			"byteOffset":0,
			"target":34962
		},
		{
			"buffer":0,
			"byteLength":62016,
			"byteOffset":62016,
			"target":34962
		},
		{
			"buffer":0,
			"byteLength":10872,
			"byteOffset":124032,
			"target":34963
		}
	],
	"buffers":[
		{
			"byteLength":134904,
			"uri":"mirror-l-unique.bin"
		}
	]
}
