{
	"asset":{
		"generator":"Khronos glTF Blender I/O v4.4.55",
		"version":"2.0"
	},
	"scene":0,
	"scenes":[
		{
			"name":"Scene",
			"nodes":[
				1
			]
		}
	],
	"nodes":[
		{
			"name":"mount_point",
			"translation":[
				0.4150787889957428,
				-0.1624140441417694,
				0.23514783382415771
			]
		},
		{
			"children":[
				0
			],
			"mesh":0,
			"name":"giulia-right"
		}
	],
	"meshes":[
		{
			"name":"giulia-right",
			"primitives":[
				{
					"attributes":{
						"POSITION":0,
						"NORMAL":1
					},
					"indices":2
				}
			]
		}
	],
	"accessors":[
		{
			"bufferView":0,
			"componentType":5126,
			"count":4964,
			"max":[
				0.4434185028076172,
				0.30026936531066895,
				0.39809247851371765
			],
			"min":[
				-0.36177587509155273,
				-0.2251230627298355,
				-0.31242457032203674
			],
			"type":"VEC3"
		},
		{
			"bufferView":1,
			"componentType":5126,
			"count":4964,
			"type":"VEC3"
		},
		{
			"bufferView":2,
			"componentType":5123,
			"count":5028,
			"type":"SCALAR"
		}
	],
	"bufferViews":[
		{
			"buffer":0,
			"byteLength":59568,
			"byteOffset":0,
			"target":34962
		},
		{
			"buffer":0,
			"byteLength":59568,
			"byteOffset":59568,
			"target":34962
		},
		{
			"buffer":0,
			"byteLength":10056,
			"byteOffset":119136,
			"target":34963
		}
	],
	"buffers":[
		{
			"byteLength":129192,
			"uri":"mirror-r-unique.bin"
		}
	]
}
