{
	"asset":{
		"generator":"Khronos glTF Blender I/O v4.4.55",
		"version":"2.0"
	},
	"scene":0,
	"scenes":[
		{
			"name":"Scene",
			"nodes":[
				0,
				2
			]
		}
	],
	"nodes":[
		{
			"mesh":0,
			"name":"mirror-l",
			"translation":[
				6.514705657958984,
				0,
				0
			]
		},
		{
			"name":"mount_point",
			"rotation":[
				0,
				0,
				-0.1736481636762619,
				0.9848077893257141
			],
			"translation":[
				0.4060239791870117,
				-0.17010562121868134,
				0.23905114829540253
			]
		},
		{
			"children":[
				1
			],
			"mesh":1,
			"name":"mirror-r"
		}
	],
	"meshes":[
		{
			"name":"body.002",
			"primitives":[
				{
					"attributes":{
						"POSITION":0,
						"NORMAL":1
					},
					"indices":2
				}
			]
		},
		{
			"name":"body.003",
			"primitives":[
				{
					"attributes":{
						"POSITION":3,
						"NORMAL":4
					},
					"indices":5
				}
			]
		}
	],
	"accessors":[
		{
			"bufferView":0,
			"componentType":5126,
			"count":5098,
			"max":[
				3.2761340141296387,
				1.7092119455337524,
				1.3260573148727417
			],
			"min":[
				2.458071708679199,
				1.1814546585083008,
				0.5960652828216553
			],
			"type":"VEC3"
		},
		{
			"bufferView":1,
			"componentType":5126,
			"count":5098,
			"type":"VEC3"
		},
		{
			"bufferView":2,
			"componentType":5123,
			"count":5439,
			"type":"SCALAR"
		},
		{
			"bufferView":3,
			"componentType":5126,
			"count":4854,
			"max":[
				0.4433870315551758,
				0.30026930570602417,
				0.3980928063392639
			],
			"min":[
				-0.36180758476257324,
				-0.2251231074333191,
				-0.3124242424964905
			],
			"type":"VEC3"
		},
		{
			"bufferView":4,
			"componentType":5126,
			"count":4854,
			"type":"VEC3"
		},
		{
			"bufferView":5,
			"componentType":5123,
			"count":5028,
			"type":"SCALAR"
		}
	],
	"bufferViews":[
		{
			"buffer":0,
			"byteLength":61176,
			"byteOffset":0,
			"target":34962
		},
		{
			"buffer":0,
			"byteLength":61176,
			"byteOffset":61176,
			"target":34962
		},
		{
			"buffer":0,
			"byteLength":10878,
			"byteOffset":122352,
			"target":34963
		},
		{
			"buffer":0,
			"byteLength":58248,
			"byteOffset":133232,
			"target":34962
		},
		{
			"buffer":0,
			"byteLength":58248,
			"byteOffset":191480,
			"target":34962
		},
		{
			"buffer":0,
			"byteLength":10056,
			"byteOffset":249728,
			"target":34963
		}
	],
	"buffers":[
		{
			"byteLength":259784,
			"uri":"mirror-r-unique.bin"
		}
	]
}
