{
	"asset":{
		"generator":"Khronos glTF Blender I/O v4.4.55",
		"version":"2.0"
	},
	"scene":0,
	"scenes":[
		{
			"name":"Scene",
			"nodes":[
				6
			]
		}
	],
	"nodes":[
		{
			"name":"mirror-l-unique",
			"rotation":[
				0,
				0,
				-0.1736481636762619,
				-0.9848077893257141
			],
			"translation":[
				2.5020806789398193,
				1.226944923400879,
				1.1491724252700806
			]
		},
		{
			"name":"mirror-r-unique",
			"rotation":[
				0,
				0,
				-0.1736481636762619,
				-0.9848077893257141
			],
			"translation":[
				-2.54938006401062,
				1.235704779624939,
				1.1473701000213623
			]
		},
		{
			"name":"wheel-bl",
			"rotation":[
				0,
				-1,
				0,
				4.371138828673793e-08
			],
			"translation":[
				1.6152691841125488,
				-0.8632415533065796,
				-5.010558128356934
			]
		},
		{
			"name":"wheel-br",
			"translation":[
				-1.6793986558914185,
				-0.8632415533065796,
				-5.010558128356934
			]
		},
		{
			"name":"wheel-fl",
			"rotation":[
				0,
				-1,
				0,
				4.371138828673793e-08
			],
			"translation":[
				1.5225379467010498,
				-0.8632415533065796,
				4.110909938812256
			]
		},
		{
			"name":"wheel-fr",
			"translation":[
				-1.5805927515029907,
				-0.8632415533065796,
				4.110909938812256
			]
		},
		{
			"children":[
				0,
				1,
				2,
				3,
				4,
				5
			],
			"mesh":0,
			"name":"body"
		}
	],
	"meshes":[
		{
			"name":"body",
			"primitives":[
				{
					"attributes":{
						"POSITION":0,
						"NORMAL":1,
						"TEXCOORD_0":2
					},
					"indices":3
				}
			]
		}
	],
	"accessors":[
		{
			"bufferView":0,
			"componentType":5126,
			"count":287150,
			"max":[
				2.9880480766296387,
				2.755718946456909,
				6.710322856903076
			],
			"min":[
				-3.0451550483703613,
				-1.464459776878357,
				-8.289676666259766
			],
			"type":"VEC3"
		},
		{
			"bufferView":1,
			"componentType":5126,
			"count":287150,
			"type":"VEC3"
		},
		{
			"bufferView":2,
			"componentType":5126,
			"count":287150,
			"type":"VEC2"
		},
		{
			"bufferView":3,
			"componentType":5125,
			"count":301083,
			"type":"SCALAR"
		}
	],
	"bufferViews":[
		{
			"buffer":0,
			"byteLength":3445800,
			"byteOffset":0,
			"target":34962
		},
		{
			"buffer":0,
			"byteLength":3445800,
			"byteOffset":3445800,
			"target":34962
		},
		{
			"buffer":0,
			"byteLength":2297200,
			"byteOffset":6891600,
			"target":34962
		},
		{
			"buffer":0,
			"byteLength":1204332,
			"byteOffset":9188800,
			"target":34963
		}
	],
	"buffers":[
		{
			"byteLength":10393132,
			"uri":"body.bin"
		}
	]
}
