{
	"asset":{
		"generator":"Khronos glTF Blender I/O v4.3.47",
		"version":"2.0"
	},
	"scene":0,
	"scenes":[
		{
			"name":"Scene",
			"nodes":[
				6
			]
		}
	],
	"nodes":[
		{
			"name":"mirror-fl",
			"translation":[
				0.9542018175125122,
				0.2481635957956314,
				0.11319944262504578
			]
		},
		{
			"name":"mirror-fr",
			"translation":[
				-0.9515277147293091,
				0.2481635957956314,
				0.11319944262504578
			]
		},
		{
			"name":"wheel-bl",
			"translation":[
				0.7416113018989563,
				-0.26985079050064087,
				-1.647465467453003
			]
		},
		{
			"name":"wheel-br",
			"translation":[
				-0.733684778213501,
				-0.2698509991168976,
				-1.647465467453003
			]
		},
		{
			"name":"wheel-fl",
			"translation":[
				0.7402321100234985,
				-0.2698509991168976,
				0.8496580123901367
			]
		},
		{
			"name":"wheel-fr",
			"translation":[
				-0.7321360111236572,
				-0.2698509991168976,
				0.8496580123901367
			]
		},
		{
			"children":[
				0,
				1,
				2,
				3,
				4,
				5
			],
			"mesh":0,
			"name":"body"
		}
	],
	"meshes":[
		{
			"name":"body",
			"primitives":[
				{
					"attributes":{
						"POSITION":0,
						"NORMAL":1,
						"TEXCOORD_0":2
					},
					"indices":3
				}
			]
		}
	],
	"accessors":[
		{
			"bufferView":0,
			"componentType":5126,
			"count":1662,
			"max":[
				1.050417184829712,
				0.6742926836013794,
				1.5892832279205322
			],
			"min":[
				-1.0504186153411865,
				-0.49430739879608154,
				-2.548250436782837
			],
			"type":"VEC3"
		},
		{
			"bufferView":1,
			"componentType":5126,
			"count":1662,
			"type":"VEC3"
		},
		{
			"bufferView":2,
			"componentType":5126,
			"count":1662,
			"type":"VEC2"
		},
		{
			"bufferView":3,
			"componentType":5123,
			"count":2436,
			"type":"SCALAR"
		}
	],
	"bufferViews":[
		{
			"buffer":0,
			"byteLength":19944,
			"byteOffset":0,
			"target":34962
		},
		{
			"buffer":0,
			"byteLength":19944,
			"byteOffset":19944,
			"target":34962
		},
		{
			"buffer":0,
			"byteLength":13296,
			"byteOffset":39888,
			"target":34962
		},
		{
			"buffer":0,
			"byteLength":4872,
			"byteOffset":53184,
			"target":34963
		}
	],
	"buffers":[
		{
			"byteLength":58056,
			"uri":"regular-nadwozie.bin"
		}
	]
}
