{
	"asset":{
		"generator":"Khronos glTF Blender I/O v4.3.47",
		"version":"2.0"
	},
	"scene":0,
	"scenes":[
		{
			"name":"Scene",
			"nodes":[
				6
			]
		}
	],
	"nodes":[
		{
			"name":"mirror-fl",
			"translation":[
				1.1352072954177856,
				0.12954211235046387,
				0.6263575553894043
			]
		},
		{
			"name":"mirror-fr",
			"translation":[
				-1.1040562391281128,
				0.12954211235046387,
				0.6263575553894043
			]
		},
		{
			"name":"wheel-bl",
			"translation":[
				0.8288893103599548,
				-0.3267247676849365,
				-1.3501321077346802
			]
		},
		{
			"name":"wheel-br",
			"translation":[
				-0.8184514045715332,
				-0.3267247676849365,
				-1.3501321077346802
			]
		},
		{
			"name":"wheel-fl",
			"translation":[
				0.8305181264877319,
				-0.3267247676849365,
				1.8161245584487915
			]
		},
		{
			"name":"wheel-fr",
			"translation":[
				-0.820754885673523,
				-0.3267247676849365,
				1.8161245584487915
			]
		},
		{
			"children":[
				0,
				1,
				2,
				3,
				4,
				5
			],
			"mesh":0,
			"name":"body"
		}
	],
	"meshes":[
		{
			"name":"body",
			"primitives":[
				{
					"attributes":{
						"POSITION":0,
						"NORMAL":1
					},
					"indices":2
				}
			]
		}
	],
	"accessors":[
		{
			"bufferView":0,
			"componentType":5126,
			"count":1663,
			"max":[
				1.3183692693710327,
				0.6224626898765564,
				2.6950109004974365
			],
			"min":[
				-1.3200005292892456,
				-0.7857614159584045,
				-2.5293784141540527
			],
			"type":"VEC3"
		},
		{
			"bufferView":1,
			"componentType":5126,
			"count":1663,
			"type":"VEC3"
		},
		{
			"bufferView":2,
			"componentType":5123,
			"count":2202,
			"type":"SCALAR"
		}
	],
	"bufferViews":[
		{
			"buffer":0,
			"byteLength":19956,
			"byteOffset":0,
			"target":34962
		},
		{
			"buffer":0,
			"byteLength":19956,
			"byteOffset":19956,
			"target":34962
		},
		{
			"buffer":0,
			"byteLength":4404,
			"byteOffset":39912,
			"target":34963
		}
	],
	"buffers":[
		{
			"byteLength":44316,
			"uri":"sport.bin"
		}
	]
}
