{
	"asset":{
		"generator":"Khronos glTF Blender I/O v4.3.47",
		"version":"2.0"
	},
	"scene":0,
	"scenes":[
		{
			"name":"Scene",
			"nodes":[
				6
			]
		}
	],
	"nodes":[
		{
			"name":"mirror-fl",
			"translation":[
				0.8243555426597595,
				0.1518935263156891,
				0.8814373016357422
			]
		},
		{
			"name":"mirror-fr",
			"translation":[
				-0.8123378157615662,
				0.1518935263156891,
				0.8814373016357422
			]
		},
		{
			"name":"wheel-bl",
			"translation":[
				0.5660346746444702,
				-0.3977752923965454,
				-1.2992180585861206
			]
		},
		{
			"name":"wheel-br",
			"translation":[
				-0.565161943435669,
				-0.3977752923965454,
				-1.2992180585861206
			]
		},
		{
			"name":"wheel-fl",
			"translation":[
				0.563870370388031,
				-0.3977752923965454,
				1.398116946220398
			]
		},
		{
			"name":"wheel-fr",
			"translation":[
				-0.5624483823776245,
				-0.3977752923965454,
				1.398116946220398
			]
		},
		{
			"children":[
				0,
				1,
				2,
				3,
				4,
				5
			],
			"mesh":0,
			"name":"body"
		}
	],
	"meshes":[
		{
			"name":"body",
			"primitives":[
				{
					"attributes":{
						"POSITION":0,
						"NORMAL":1
					},
					"indices":2
				}
			]
		}
	],
	"accessors":[
		{
			"bufferView":0,
			"componentType":5126,
			"count":3571,
			"max":[
				0.9759059548377991,
				0.713848352432251,
				2.368260622024536
			],
			"min":[
				-0.9759059548377991,
				-0.620068371295929,
				-2.227997303009033
			],
			"type":"VEC3"
		},
		{
			"bufferView":1,
			"componentType":5126,
			"count":3571,
			"type":"VEC3"
		},
		{
			"bufferView":2,
			"componentType":5123,
			"count":3816,
			"type":"SCALAR"
		}
	],
	"bufferViews":[
		{
			"buffer":0,
			"byteLength":42852,
			"byteOffset":0,
			"target":34962
		},
		{
			"buffer":0,
			"byteLength":42852,
			"byteOffset":42852,
			"target":34962
		},
		{
			"buffer":0,
			"byteLength":7632,
			"byteOffset":85704,
			"target":34963
		}
	],
	"buffers":[
		{
			"byteLength":93336,
			"uri":"suv.bin"
		}
	]
}
